<svg xmlns="http://www.w3.org/2000/svg" version="1.1" xmlns:xlink="http://www.w3.org/1999/xlink" xmlns:svgjs="http://svgjs.com/svgjs" width="1360" height="860" preserveAspectRatio="none" viewBox="0 0 1360 860"><g mask="url(&quot;#SvgjsMask1366&quot;)" fill="none"><rect width="1360" height="860" x="0" y="0" fill="url(#SvgjsLinearGradient1367)"></rect><path d="M1360 0L979.23 0L1360 14.34z" fill="rgba(255, 255, 255, .1)"></path><path d="M979.23 0L1360 14.34L1360 308.40999999999997L463.63 0z" fill="rgba(255, 255, 255, .075)"></path><path d="M463.63 0L1360 308.40999999999997L1360 577.55L232.9 0z" fill="rgba(255, 255, 255, .05)"></path><path d="M232.9000000000001 0L1360 577.55L1360 745.1099999999999L191.8200000000001 0z" fill="rgba(255, 255, 255, .025)"></path><path d="M0 860L488.96 860L0 785.71z" fill="rgba(0, 0, 0, .1)"></path><path d="M0 785.71L488.96 860L618.25 860L0 388.95000000000005z" fill="rgba(0, 0, 0, .075)"></path><path d="M0 388.95L618.25 860L1018.5899999999999 860L0 278.44z" fill="rgba(0, 0, 0, .05)"></path><path d="M0 278.43999999999994L1018.5899999999999 860L1131 860L0 186.96999999999994z" fill="rgba(0, 0, 0, .025)"></path></g><defs><mask id="SvgjsMask1366"><rect width="1360" height="860" fill="#ffffff"></rect></mask><linearGradient x1="9.19%" y1="-14.53%" x2="90.81%" y2="114.53%" gradientUnits="userSpaceOnUse" id="SvgjsLinearGradient1367"><stop stop-color="#0e2a47" offset="0"></stop><stop stop-color="rgba(148, 164, 184, 1)" offset="1"></stop></linearGradient></defs></svg>